<svg aria-hidden="true" style="position: absolute; width: 0; height: 0; overflow: hidden;" version="1.1" xmlns="http://www.w3.org/2000/svg" xmlns:xlink="http://www.w3.org/1999/xlink">
<defs>
<symbol id="icon-arrow" viewBox="0 0 82 32">
<path d="M81.414 17.414c0.362-0.362 0.586-0.862 0.586-1.414s-0.224-1.052-0.586-1.414l-12.728-12.728c-0.364-0.377-0.874-0.611-1.439-0.611-1.105 0-2 0.895-2 2 0 0.565 0.234 1.074 0.61 1.438l0.001 0.001 11.314 11.314-11.314 11.314c-0.347 0.359-0.561 0.849-0.561 1.389 0 1.105 0.895 2 2 2 0.54 0 1.030-0.214 1.39-0.562l-0.001 0.001 12.728-12.728zM0 18h80v-4h-80v4z"></path>
</symbol>
<symbol id="icon-checkmark-right" viewBox="0 0 20 32">
<path  d="M5.679 3.764l11.776 12.323-11.776 12.32"></path>
</symbol>
<symbol id="icon-github" viewBox="0 0 32 32">
<path  d="M16 0.941c-8.272 0-15.059 6.787-15.059 15.059 0 7.058 4.952 13.469 11.53 15.059v-4.982c-0.653 0.142-1.251 0.147-1.915-0.048-0.89-0.264-1.613-0.856-2.15-1.76-0.341-0.578-0.947-1.203-1.581-1.157l-0.155-1.76c1.368-0.115 2.552 0.835 3.254 2.016 0.312 0.523 0.672 0.832 1.131 0.968 0.446 0.131 0.925 0.067 1.482-0.128 0.141-1.117 0.651-1.536 1.038-2.123-3.923-0.586-5.486-2.667-6.107-4.309-0.821-2.181-0.381-4.906 1.074-6.627 0.029-0.034 0.080-0.122 0.059-0.182-0.666-2.014 0.146-3.68 0.176-3.856 0.768 0.227 0.894-0.229 3.341 1.258l0.424 0.254c0.176 0.106 0.122 0.045 0.298 0.032 0.944-0.267 2.030-0.429 3.151-0.446l0.010-0c1.147 0.018 2.247 0.183 3.294 0.478l-0.090-0.022 0.136 0.013c-0.011 0 0.038-0.008 0.12-0.058 3.058-1.851 2.947-1.246 3.768-1.512 0.029 0.176 0.832 1.869 0.171 3.856-0.090 0.275 2.651 2.784 1.133 6.81-0.621 1.643-2.184 3.725-6.106 4.31 0.502 0.766 1.106 1.174 1.104 2.755v6.219c6.576-1.59 11.528-8 11.528-15.059 0-8.27-6.786-15.058-15.058-15.058z"></path>
</symbol>
<symbol id="icon-telegram" viewBox="0 0 40 32">
<path  d="M16.204 20.75l-0.634 8.34c0.908 0 1.3-0.366 1.774-0.802l4.26-3.8 8.83 6.034c1.62 0.84 2.76 0.398 3.196-1.39l5.796-25.346c0.516-2.236-0.864-3.108-2.44-2.56l-34.066 12.172c-2.326 0.84-2.29 2.052-0.396 2.6l8.71 2.528 20.226-11.814c0.952-0.588 1.82-0.264 1.106 0.326l-16.364 13.712z"></path>
</symbol>
<symbol id="icon-facebook" viewBox="0 0 16 32">
<path  d="M14.266 15.97h-4.176v15.39h-6.326v-15.392h-3.011v-5.408h3.008v-3.498c0-2.504 1.184-6.422 6.384-6.422l4.688 0.019v5.25h-3.4c-0.557 0-1.342 0.282-1.342 1.475v3.184h4.73l-0.554 5.4z"></path>
</symbol>
<symbol id="icon-burger" viewBox="0 0 50 32">
<path  d="M2.286 2.286h45.714M2.286 16h45.714M2.286 29.714h45.714"></path>
</symbol>
<symbol id="icon-cross" viewBox="0 0 32 32">
<path  d="M28.614 1.13l-12.614 12.614-12.614-12.614c-0.283-0.26-0.662-0.419-1.078-0.419-0.882 0-1.597 0.715-1.597 1.597 0 0.416 0.159 0.795 0.42 1.079l-0.001-0.001 12.608 12.614-12.611 12.611c-0.309 0.292-0.502 0.704-0.502 1.161 0 0.881 0.714 1.595 1.595 1.595 0.233 0 0.455-0.050 0.654-0.14l-0.010 0.004c0.202-0.089 0.375-0.211 0.518-0.361l0.001-0.001 12.618-12.611 12.614 12.614c0.283 0.26 0.662 0.419 1.078 0.419 0.882 0 1.597-0.715 1.597-1.597 0-0.416-0.159-0.795-0.42-1.079l0.001 0.001-12.614-12.614 12.614-12.618c0.289-0.289 0.468-0.688 0.468-1.13 0-0.882-0.715-1.596-1.596-1.596-0.44 0-0.839 0.178-1.128 0.467l0-0v0.003z"></path>
</symbol>
</defs>
</svg>
